{
  "title": "The Kettering Incident - S01E01-E02 - Anna &amp; The Lights",
  "uid": 15215612,
  "size": 812914285,
  "categoryP": "video",
  "categoryS": "tv_shows",
  "magnet": "?xt=urn:btih:d5e1798e77817d8f4807cfc51df87dfeae8707d1&amp;dn=The+Kettering+Incident+-+S01E01-E02+-+Anna+%26amp%3B+The+Lights&amp;tr=udp%3A%2F%2Ftracker.leechers-paradise.org%3A6969&amp;tr=udp%3A%2F%2Fzer0day.ch%3A1337&amp;tr=udp%3A%2F%2Fopen.demonii.com%3A1337&amp;tr=udp%3A%2F%2Ftracker.coppersurfer.tk%3A6969&amp;tr=udp%3A%2F%2Fexodus.desync.com%3A6969",
  "seeders": 86,
  "leechers": 3,
  "uploader": "Bullrout",
  "files": 1,
  "time": 1467690477,
  "description": "The Kettering Incident - S01E01-E02 - Anna &amp; The Lights\r\n\r\nWhen two girls disappear in the Tasmanian wilds 15 years apart, Dr Anna Macy finds herself linked to both cases. Anna must confront the events of her past and the truth of what is happening in Kettering forest.\r\n\r\nComplete name                            : The Kettering Incident - S01E01-E02 - Anna &amp; The Lights.mp4\r\nFormat                                   : MPEG-4\r\nFormat profile                           : Base Media / Version 2\r\nCodec ID                                 : mp42 (mp42/isom/avc1)\r\nFile size                                : 775 MiB\r\nDuration                                 : 1h 37mn\r\nOverall bit rate mode                    : Variable\r\nOverall bit rate                         : 1 114 Kbps\r\n\r\nVideo\r\nID                                       : 2\r\nFormat                                   : AVC\r\nFormat/Info                              : Advanced Video Codec\r\nFormat profile                           :   \r\nFormat settings, CABAC                   : Yes\r\nFormat settings, ReFrames                : 3 frames\r\nCodec ID                                 : avc1\r\nCodec ID/Info                            : Advanced Video Coding\r\nDuration                                 : 1h 37mn\r\nBit rate mode                            : Variable\r\nBit rate                                 : 982 Kbps\r\nMaximum bit rate                         : 1 000 Kbps\r\nWidth                                    : 720 pixels\r\nHeight                                   : 388 pixels\r\nDisplay aspect ratio                     : 1.85:1\r\nFrame rate mode                          : Constant\r\nFrame rate                               : 25.000 fps\r\nStandard                                 : PAL\r\nColor space                              : YUV\r\nChroma subsampling                       : 4:2:0\r\nBit depth                                : 8 bits\r\nScan type                                : Progressive\r\nBits/(Pixel*Frame)                       : 0.141\r\nStream size                              : 684 MiB (88%)\r\nWriting library                          : x264 core 112\r\nColor range                              : Limited\r\nColor primaries                          : BT.601 PAL\r\nTransfer characteristics                 : BT.470 System B, BT.470 System G\r\nMatrix coefficients                      : BT.601\r\n\r\nAudio\r\nID                                       : 1\r\nFormat                                   : AAC\r\nFormat/Info                              : Advanced Audio Codec\r\nFormat profile                           : LC\r\nCodec ID                                 : 40\r\nDuration                                 : 1h 37mn\r\nBit rate mode                            : Variable\r\nBit rate                                 : 128 Kbps\r\nMaximum bit rate                         : 576 Kbps\r\nChannel(s)                               : 2 channels\r\nChannel positions                        : Front: L R\r\nSampling rate                            : 48.0 KHz\r\nFrame rate                               : 46.875 fps (1024 spf)\r\nCompression mode                         : Lossy\r\nStream size                              : 89.1 MiB (11%)",
  "parsed": {
    "xt": "urn:btih:d5e1798e77817d8f4807cfc51df87dfeae8707d1",
    "dn": "The Kettering Incident - S01E01-E02 - Anna &amp; The Lights",
    "tr": [
      "udp://exodus.desync.com:6969",
      "udp://open.demonii.com:1337",
      "udp://tracker.coppersurfer.tk:6969",
      "udp://tracker.leechers-paradise.org:6969",
      "udp://zer0day.ch:1337"
    ],
    "infoHash": "d5e1798e77817d8f4807cfc51df87dfeae8707d1",
    "infoHashBuffer": {
      "type": "Buffer",
      "data": [
        213,
        225,
        121,
        142,
        119,
        129,
        125,
        143,
        72,
        7,
        207,
        197,
        29,
        248,
        125,
        254,
        174,
        135,
        7,
        209
      ]
    },
    "name": "The Kettering Incident - S01E01-E02 - Anna &amp; The Lights",
    "announce": [
      "udp://exodus.desync.com:6969",
      "udp://open.demonii.com:1337",
      "udp://tracker.coppersurfer.tk:6969",
      "udp://tracker.leechers-paradise.org:6969",
      "udp://zer0day.ch:1337"
    ],
    "urlList": []
  },
  "previous": 89,
  "peers": 85,
  "last_updated": "2016-12-25T15:07:39.867Z"
}